<?xml version="1.0" encoding="UTF-8" standalone="no"?>
<!-- Created with Inkscape (http://www.inkscape.org/) -->

<svg
   width="1163.1783mm"
   height="91.571739mm"
   viewBox="0 0 1163.1785 91.571749"
   version="1.1"
   id="svg5"
   inkscape:version="1.3 (0e150ed6c4, 2023-07-21)"
   sodipodi:docname="logoMagicHarvest.svg"
   xmlns:inkscape="http://www.inkscape.org/namespaces/inkscape"
   xmlns:sodipodi="http://sodipodi.sourceforge.net/DTD/sodipodi-0.dtd"
   xmlns="http://www.w3.org/2000/svg"
   xmlns:svg="http://www.w3.org/2000/svg">
  <sodipodi:namedview
     id="namedview7"
     pagecolor="#ffffff"
     bordercolor="#666666"
     borderopacity="1.0"
     inkscape:pageshadow="2"
     inkscape:pageopacity="0.0"
     inkscape:pagecheckerboard="0"
     inkscape:document-units="mm"
     showgrid="false"
     inkscape:zoom="0.20021921"
     inkscape:cx="1450.9097"
     inkscape:cy="422.03742"
     inkscape:window-width="3356"
     inkscape:window-height="1417"
     inkscape:window-x="-8"
     inkscape:window-y="-8"
     inkscape:window-maximized="1"
     inkscape:current-layer="layer1"
     fit-margin-top="0"
     fit-margin-left="0"
     fit-margin-right="0"
     fit-margin-bottom="0"
     inkscape:showpageshadow="2"
     inkscape:deskcolor="#d1d1d1" />
  <defs
     id="defs2">
    <clipPath
       clipPathUnits="userSpaceOnUse"
       id="clipPath32714-8">
      <path
         sodipodi:type="star"
         style="fill:#f0f8fa;fill-opacity:1;stroke-width:5.53701;stroke-linejoin:bevel"
         id="path32716-7"
         inkscape:flatsided="true"
         sodipodi:sides="4"
         sodipodi:cx="328.95694"
         sodipodi:cy="334.28955"
         sodipodi:r1="194.34247"
         sodipodi:r2="137.42088"
         sodipodi:arg1="0"
         sodipodi:arg2="0.78539816"
         inkscape:rounded="0"
         inkscape:randomized="0"
         transform="matrix(0.26458333,0,0,0.26458333,-35.616745,-37.027665)"
         inkscape:transform-center-x="1.0965231e-06"
         inkscape:transform-center-y="-1.1142985e-06"
         d="M 523.29941,334.28955 328.95694,528.63202 134.61447,334.28955 328.95694,139.94708 Z" />
    </clipPath>
  </defs>
  <g
     inkscape:label="Calque 1"
     inkscape:groupmode="layer"
     id="layer1"
     transform="translate(10.309818,-140.81255)">
    <g
       id="g29494"
       transform="matrix(1.6458569,-0.53598278,0.53598278,1.6458569,-229.25057,-38.906829)">
      <g
         id="g14463-3-2-3"
         transform="matrix(3.0696994,0.89054572,-0.89054572,3.0696994,927.21561,148.34267)"
         style="stroke-linecap:butt;stroke-linejoin:round">
        <polygon
           style="fill:#3b484a"
           points="72.574,249.043 60.637,252.066 38.52,283.096 62.011,279.022 "
           id="polygon14235-0-8-3"
           transform="matrix(0.02449793,0,0,0.02449793,-247.34003,74.897674)" />
        <path
           style="fill:#b3b3b3;stroke-width:0.0244979"
           d="m -245.9167,83.200391 0.0682,0.710538 -0.62245,0.856376 c -0.14161,0.19483 -0.0983,0.468545 0.0965,0.610156 l 0.56769,0.41262 c 0.12739,0.09264 0.29212,0.109403 0.43476,0.04563 l 1.13473,-0.753656 0.76959,-0.210319 0.0351,0.795219 -1.4501,0.963088 c -0.0151,0.0094 -0.0305,0.01904 -0.0466,0.02718 -0.46102,0.234468 -1.00732,0.191231 -1.42573,-0.11288 l -0.56772,-0.412618 c -0.61068,-0.443878 -0.74641,-1.301879 -0.30254,-1.91261 l 0.62245,-0.856378 z"
           id="path14237-9-1-2"
           inkscape:connector-curvature="0" />
        <g
           id="g14259-2-6-0"
           transform="matrix(0.02449793,0,0,0.02449793,-247.34003,74.897674)">
          <path
             style="fill:#999999"
             d="M 448.854,1.058 448.186,0.893 C 431.919,-3.127 415.475,6.8 411.454,23.067 l 30.12,7.444 z"
             id="path14239-5-0-8"
             inkscape:connector-curvature="0" />
          <path
             style="fill:#999999"
             d="m 510.852,79.816 -0.186,-0.662 C 506.127,63.024 489.371,53.629 473.243,58.169 l 8.405,29.866 z"
             id="path14241-4-7-3"
             inkscape:connector-curvature="0" />
          <path
             style="fill:#999999"
             d="m 213.459,144.89 -0.486,0.486 c -11.848,11.848 -11.848,31.058 0,42.906 l 13.544,13.544 21.939,-21.939 z"
             id="path14243-0-1-8"
             inkscape:connector-curvature="0" />
          <path
             style="fill:#999999"
             d="m 259.976,98.372 -0.486,0.486 c -11.848,11.848 -11.848,31.058 0,42.906 l 13.544,13.544 21.939,-21.939 z"
             id="path14245-5-9-0"
             inkscape:connector-curvature="0" />
          <path
             style="fill:#999999"
             d="m 306.493,51.855 -0.486,0.486 c -11.848,11.848 -11.848,31.058 0,42.906 l 13.544,13.544 21.939,-21.939 z"
             id="path14247-9-1-4"
             inkscape:connector-curvature="0" />
          <path
             style="fill:#999999"
             d="m 353.01,5.338 -0.486,0.486 c -11.848,11.848 -11.848,31.058 0,42.906 l 13.544,13.544 21.939,-21.939 z"
             id="path14249-4-1-3"
             inkscape:connector-curvature="0" />
          <path
             style="fill:#999999"
             d="m 479.602,175.808 0.486,-0.486 c 11.848,-11.848 11.848,-31.058 0,-42.906 l -13.544,-13.544 -21.939,21.939 z"
             id="path14251-6-9-2"
             inkscape:connector-curvature="0" />
          <path
             style="fill:#999999"
             d="m 433.084,222.325 0.486,-0.486 c 11.848,-11.848 11.848,-31.058 0,-42.906 l -13.544,-13.544 -21.939,21.939 z"
             id="path14253-9-7-9"
             inkscape:connector-curvature="0" />
          <path
             style="fill:#999999"
             d="m 386.568,268.842 0.486,-0.486 c 11.848,-11.848 11.848,-31.058 0,-42.906 l -13.544,-13.544 -21.939,21.939 z"
             id="path14255-2-5-0"
             inkscape:connector-curvature="0" />
          <path
             style="fill:#999999"
             d="m 340.051,315.359 0.486,-0.486 c 11.848,-11.848 11.848,-31.058 0,-42.906 l -13.544,-13.544 -21.939,21.939 z"
             id="path14257-2-8-0"
             inkscape:connector-curvature="0" />
        </g>
        <path
           style="fill:#b3b3b3;stroke-width:0.0244979"
           d="m -236.01008,75.985235 v 0 c -0.71456,-0.714556 -1.87306,-0.714556 -2.58759,0 l -4.05676,4.056735 0.3609,2.22669 2.22669,0.360904 4.05674,-4.056735 c 0.71455,-0.714556 0.71455,-1.873063 2e-5,-2.587594 z"
           id="path14261-4-9-1"
           inkscape:connector-curvature="0" />
        <path
           style="fill:#d9d9d9;stroke-width:0.0244979"
           d="m -236.60393,76.579089 c -0.38597,-0.385964 -1.01395,-0.385964 -1.39989,0 l -4.05676,4.056711 0.18185,1.218061 1.21806,0.181848 4.05674,-4.056734 c 0.38594,-0.385965 0.38594,-1.013945 0,-1.399886 z"
           id="path14263-7-1-2"
           inkscape:connector-curvature="0" />
        <path
           style="fill:#fbd569;fill-opacity:1;stroke-width:0.0244979"
           d="m -242.65443,80.04197 c -0.53874,-0.538734 -1.41221,-0.538734 -1.95095,0 l -2.18401,2.184015 c -0.27756,0.277561 -0.27756,0.727564 0,1.005125 l 3.0605,3.060502 3.66205,-3.662073 z"
           id="path14275-7-4-9"
           inkscape:connector-curvature="0" />
        <path
           style="fill:#f0be18;fill-opacity:1;stroke-width:0.0244979"
           d="m -246.1837,82.831647 2.18401,-2.184015 c 0.53874,-0.538734 1.41221,-0.538734 1.95094,0 l -0.60568,-0.605687 c -0.53874,-0.538734 -1.41221,-0.538734 -1.95095,0 l -2.18401,2.184015 c -0.27756,0.277562 -0.27756,0.727564 0,1.005126 l 0.60569,0.605687 c -0.27756,-0.277537 -0.27756,-0.72754 0,-1.005126 z"
           id="path14277-5-0-5"
           inkscape:connector-curvature="0" />
        <path
           style="fill:#3b484a;stroke-width:0.0244979"
           d="m -246.39637,81.83294 -1.63455,-0.887705 c -0.23728,-0.303319 -0.34186,-0.681025 -0.29541,-1.063136 0.0467,-0.382261 0.23954,-0.723424 0.54285,-0.960649 0.30333,-0.237257 0.68089,-0.342131 1.06315,-0.295451 0.38227,0.04671 0.65995,0.302312 0.96065,0.542857 l 2.22479,1.779739 c 0.16667,0.213106 0.12905,0.52098 -0.0841,0.687689 -0.2131,0.16672 -0.52101,0.12909 -0.68771,-0.08408 l -2.22478,-1.779716 c -0.15694,-0.200566 -0.44781,-0.236124 -0.64839,-0.07927 -0.0972,0.07602 -0.15895,0.185324 -0.17394,0.307789 -0.0149,0.122465 0.0187,0.243433 0.0946,0.340615 l 1.51549,0.785825 z"
           id="path14279-4-3-4"
           sodipodi:nodetypes="cccssscsccscccc"
           inkscape:connector-curvature="0" />
        <path
           style="fill:#3b484a;stroke-width:0.0244979"
           d="m -244.29788,84.526218 c -0.0484,0 -0.0969,-0.01847 -0.13384,-0.05544 -0.0739,-0.07391 -0.0739,-0.193779 0,-0.267689 l 1.34332,-1.343295 c 0.0739,-0.07391 0.19378,-0.07391 0.26767,0 0.0739,0.07391 0.0739,0.193779 0,0.267689 l -1.34332,1.343295 c -0.0369,0.03697 -0.0854,0.05544 -0.13383,0.05544 z"
           id="path14281-8-5-3"
           inkscape:connector-curvature="0" />
        <path
           style="fill:#3b484a;stroke-width:0.0244979"
           d="m -243.22031,84.653681 c -0.0484,0 -0.0969,-0.01847 -0.13383,-0.05544 -0.0739,-0.07391 -0.0739,-0.193778 0,-0.267689 l 0.86824,-0.868231 c 0.0739,-0.07391 0.19378,-0.07391 0.26767,0 0.0739,0.07391 0.0739,0.193779 0,0.267689 l -0.86823,0.868231 c -0.037,0.03697 -0.0854,0.05544 -0.13385,0.05544 z"
           id="path14283-1-8-4"
           inkscape:connector-curvature="0" />
      </g>
      <g
         id="g4581"
         transform="matrix(-0.59024663,0.09791323,0.09791323,0.59024663,153.03887,80.813791)">
        <path
           style="fill:#a67eff;fill-opacity:1;stroke:none;stroke-width:0.264583px;stroke-linecap:butt;stroke-linejoin:miter;stroke-opacity:1"
           d="m 83.748051,152.95995 c -7.268075,-4.45995 -6.424864,-9.4098 -5.490446,-10.22742 0.934421,-0.81762 9.006809,-4.88403 11.213031,-8.64338 2.206226,-3.75934 0.55439,-11.52297 0.55439,-11.52297 0,0 -1.138402,-7.04861 -0.671193,-8.21663 0.467212,-1.16803 2.447849,-6.64413 5.606516,-8.87699 3.15867,-2.23285 10.701391,-2.48979 13.234861,-5.04097 2.53346,-2.55118 6.2891,-8.127057 10.0762,-8.259177 3.7871,-0.132122 10.4181,-0.185081 12.88432,1.651834 2.46621,1.836917 3.65387,7.549613 3.46885,10.241383 -0.18502,2.69176 -3.12495,-2.15755 -5.45106,-2.47775 -2.32611,-0.3202 -4.89499,-0.91139 -5.9466,1.48665 -1.05161,2.39803 -1.05161,8.35496 -2.7e-4,9.99019 1.05123,1.63524 4.76903,6.59839 5.94699,10.65775 1.17796,4.05935 3.73747,3.87231 2.80812,8.75473 -0.92935,4.88242 -4.46643,3.90693 -4.62513,8.42436 -0.15869,4.51743 5.21422,6.03586 2.17735,8.83911 -3.03686,2.80326 -27.33491,6.99221 -33.231855,6.35777 -5.896943,-0.63445 -12.55395,-3.13849 -12.55395,-3.13849 z"
           id="path4458" />
        <path
           sodipodi:type="star"
           style="fill:#ffdc00;fill-opacity:1;stroke:none;stroke-width:2.13543;stroke-linecap:round;stroke-linejoin:round"
           id="path2578"
           inkscape:flatsided="false"
           sodipodi:sides="5"
           sodipodi:cx="206.64851"
           sodipodi:cy="357.10861"
           sodipodi:r1="35.63525"
           sodipodi:r2="21.536913"
           sodipodi:arg1="-1.5707963"
           sodipodi:arg2="-0.9424778"
           inkscape:rounded="0"
           inkscape:randomized="0"
           transform="matrix(0.19147415,0,0,0.19147415,51.778647,74.467009)"
           inkscape:transform-center-y="-0.65156277"
           inkscape:transform-center-x="1.3530041e-06"
           d="m 206.64851,321.47336 12.65908,18.21152 21.23206,6.41184 -13.40831,17.66716 0.46305,22.17426 -20.94588,-7.29262 -20.94587,7.29261 0.46305,-22.17425 -13.40831,-17.66717 21.23205,-6.41183 z" />
        <path
           sodipodi:type="star"
           style="fill:#ffdc00;fill-opacity:1;stroke:none;stroke-width:2.13543;stroke-linecap:round;stroke-linejoin:round"
           id="path2578-5"
           inkscape:flatsided="false"
           sodipodi:sides="5"
           sodipodi:cx="206.64851"
           sodipodi:cy="357.10861"
           sodipodi:r1="35.63525"
           sodipodi:r2="21.536913"
           sodipodi:arg1="-1.5707963"
           sodipodi:arg2="-0.9424778"
           inkscape:rounded="0"
           inkscape:randomized="0"
           transform="matrix(0.19147415,0,0,0.19147415,77.382096,68.220544)"
           inkscape:transform-center-y="-0.65156277"
           inkscape:transform-center-x="1.3530041e-06"
           d="m 206.64851,321.47336 12.65908,18.21152 21.23206,6.41184 -13.40831,17.66716 0.46305,22.17426 -20.94588,-7.29262 -20.94587,7.29261 0.46305,-22.17425 -13.40831,-17.66717 21.23205,-6.41183 z" />
        <path
           sodipodi:type="star"
           style="fill:#ffdc00;fill-opacity:1;stroke:none;stroke-width:2.13543;stroke-linecap:round;stroke-linejoin:round"
           id="path2578-5-0"
           inkscape:flatsided="false"
           sodipodi:sides="5"
           sodipodi:cx="206.64851"
           sodipodi:cy="357.10861"
           sodipodi:r1="35.63525"
           sodipodi:r2="21.536913"
           sodipodi:arg1="-1.5707963"
           sodipodi:arg2="-0.9424778"
           inkscape:rounded="0"
           inkscape:randomized="0"
           transform="matrix(0.19147415,0,0,0.19147415,62.18521,53.849576)"
           inkscape:transform-center-y="-0.65156277"
           inkscape:transform-center-x="1.3530041e-06"
           d="m 206.64851,321.47336 12.65908,18.21152 21.23206,6.41184 -13.40831,17.66716 0.46305,22.17426 -20.94588,-7.29262 -20.94587,7.29261 0.46305,-22.17425 -13.40831,-17.66717 21.23205,-6.41183 z" />
        <path
           sodipodi:type="star"
           style="fill:#ffdc00;fill-opacity:1;stroke:none;stroke-width:2.13543;stroke-linecap:round;stroke-linejoin:round"
           id="path2578-5-0-3"
           inkscape:flatsided="false"
           sodipodi:sides="5"
           sodipodi:cx="206.64851"
           sodipodi:cy="357.10861"
           sodipodi:r1="35.63525"
           sodipodi:r2="21.536913"
           sodipodi:arg1="-1.5707963"
           sodipodi:arg2="-0.9424778"
           inkscape:rounded="0"
           inkscape:randomized="0"
           transform="matrix(0.19147415,0,0,0.19147415,75.683143,36.805956)"
           inkscape:transform-center-y="-0.65156277"
           inkscape:transform-center-x="1.3530041e-06"
           d="m 206.64851,321.47336 12.65908,18.21152 21.23206,6.41184 -13.40831,17.66716 0.46305,22.17426 -20.94588,-7.29262 -20.94587,7.29261 0.46305,-22.17425 -13.40831,-17.66717 21.23205,-6.41183 z" />
      </g>
      <path
         sodipodi:type="star"
         style="fill:#ffdc00;fill-opacity:1;stroke:none;stroke-width:2.13543;stroke-linecap:round;stroke-linejoin:round"
         id="path4765"
         inkscape:flatsided="false"
         sodipodi:sides="4"
         sodipodi:cx="61.362644"
         sodipodi:cy="572.57086"
         sodipodi:r1="63.608246"
         sodipodi:r2="7.6329894"
         sodipodi:arg1="-1.6055046"
         sodipodi:arg2="-0.82010644"
         inkscape:rounded="0"
         inkscape:randomized="0"
         transform="matrix(0.09095052,0,0,0.09095052,128.44979,106.48363)"
         d="m 59.155355,509.00093 7.414082,57.98855 58.363143,3.37409 -57.988553,7.41409 -3.374094,58.36314 -7.414082,-57.98856 -58.3631432,-3.37409 57.9885542,-7.41408 z" />
      <path
         sodipodi:type="star"
         style="fill:#ffdc00;fill-opacity:1;stroke:none;stroke-width:2.13543;stroke-linecap:round;stroke-linejoin:round"
         id="path4765-3"
         inkscape:flatsided="false"
         sodipodi:sides="4"
         sodipodi:cx="61.362644"
         sodipodi:cy="572.57086"
         sodipodi:r1="63.608246"
         sodipodi:r2="7.6329894"
         sodipodi:arg1="-1.6055046"
         sodipodi:arg2="-0.82010644"
         inkscape:rounded="0"
         inkscape:randomized="0"
         transform="matrix(0.04501591,0,0,0.04501591,130.27564,163.9123)"
         d="m 59.155355,509.00093 7.414082,57.98855 58.363143,3.37409 -57.988553,7.41409 -3.374094,58.36314 -7.414082,-57.98856 -58.3631432,-3.37409 57.9885542,-7.41408 z" />
      <path
         sodipodi:type="star"
         style="fill:#ffdc00;fill-opacity:1;stroke:none;stroke-width:2.13543;stroke-linecap:round;stroke-linejoin:round"
         id="path4765-3-7"
         inkscape:flatsided="false"
         sodipodi:sides="4"
         sodipodi:cx="61.362644"
         sodipodi:cy="572.57086"
         sodipodi:r1="63.608246"
         sodipodi:r2="7.6329894"
         sodipodi:arg1="-1.6055046"
         sodipodi:arg2="-0.82010644"
         inkscape:rounded="0"
         inkscape:randomized="0"
         transform="matrix(0.06338975,0,0,0.06338975,115.01508,126.64422)"
         d="m 59.155355,509.00093 7.414082,57.98855 58.363143,3.37409 -57.988553,7.41409 -3.374094,58.36314 -7.414082,-57.98856 -58.3631432,-3.37409 57.9885542,-7.41408 z" />
      <path
         sodipodi:type="star"
         style="fill:#ffdc00;fill-opacity:1;stroke:none;stroke-width:2.13543;stroke-linecap:round;stroke-linejoin:round"
         id="path4765-3-7-8"
         inkscape:flatsided="false"
         sodipodi:sides="4"
         sodipodi:cx="61.362644"
         sodipodi:cy="572.57086"
         sodipodi:r1="63.608246"
         sodipodi:r2="7.6329894"
         sodipodi:arg1="-1.6055046"
         sodipodi:arg2="-0.82010644"
         inkscape:rounded="0"
         inkscape:randomized="0"
         transform="matrix(0.04042245,0,0,0.04042245,137.52279,157.56805)"
         d="m 59.155355,509.00093 7.414082,57.98855 58.363143,3.37409 -57.988553,7.41409 -3.374094,58.36314 -7.414082,-57.98856 -58.3631432,-3.37409 57.9885542,-7.41408 z" />
    </g>
    <path
       style="font-weight:bold;font-size:78.144px;line-height:0.9;font-family:Montserrat;-inkscape-font-specification:'Montserrat Bold';white-space:pre;fill:#3b4252;stroke-width:13.5307;stroke-linejoin:round"
       d="m 131.2917,209.45554 v -54.7008 h 10.4713 l 23.28691,38.60313 h -5.54823 l 22.89619,-38.60313 h 10.39316 l 0.15628,54.7008 h -11.87788 l -0.0782,-36.49325 h 2.18803 l -18.28569,30.71059 h -5.70451 l -18.67642,-30.71059 h 2.6569 v 36.49325 z m 99.55544,0 v -8.20512 l -0.78144,-1.79732 v -14.69107 q 0,-3.9072 -2.42246,-6.09523 -2.34432,-2.18803 -7.26739,-2.18803 -3.36019,0 -6.64224,1.09402 -3.2039,1.01587 -5.47008,2.81318 l -4.37606,-8.5177 q 3.43833,-2.42246 8.28326,-3.75091 4.84493,-1.32845 9.84614,-1.32845 9.61171,0 14.92551,4.53236 5.31379,4.53235 5.31379,14.14406 v 23.99021 z m -12.81561,0.62515 q -4.92307,0 -8.43955,-1.64103 -3.51648,-1.71916 -5.39194,-4.61049 -1.87545,-2.89133 -1.87545,-6.48595 0,-3.75092 1.79731,-6.5641 1.87545,-2.81318 5.8608,-4.37606 3.98534,-1.64103 10.39315,-1.64103 h 11.17459 v 7.11111 h -9.84614 q -4.29792,0 -5.93895,1.40659 -1.56288,1.40659 -1.56288,3.51648 0,2.34432 1.79732,3.75091 1.87545,1.32845 5.07936,1.32845 3.04761,0 5.47008,-1.40659 2.42246,-1.48474 3.51647,-4.29792 l 1.87546,5.62636 q -1.32845,4.06349 -4.84493,6.17338 -3.51648,2.10989 -9.0647,2.10989 z m 55.32597,15.15993 q -5.93894,0 -11.48717,-1.48473 -5.47008,-1.40659 -9.14285,-4.29792 l 4.84493,-8.75213 q 2.6569,2.18803 6.72039,3.43834 4.14163,1.32844 8.12697,1.32844 6.48595,0 9.37728,-2.89132 2.96947,-2.89133 2.96947,-8.59584 v -6.32967 l 0.78144,-10.54944 -0.15628,-10.62758 v -9.0647 h 11.56531 v 35.00851 q 0,11.7216 -6.09523,17.26982 -6.09524,5.54822 -17.50426,5.54822 z m -1.87546,-17.81683 q -5.8608,0 -10.62758,-2.50061 -4.68864,-2.57875 -7.57997,-7.1111 -2.81318,-4.6105 -2.81318,-10.70573 0,-6.17337 2.81318,-10.70572 2.89133,-4.6105 7.57997,-7.11111 4.76678,-2.50061 10.62758,-2.50061 5.3138,0 9.37728,2.18804 4.06349,2.10988 6.32967,6.64224 2.26617,4.4542 2.26617,11.48716 0,6.95482 -2.26617,11.48717 -2.26618,4.45421 -6.32967,6.64224 -4.06348,2.18803 -9.37728,2.18803 z m 2.42247,-10.00243 q 3.2039,0 5.70451,-1.2503 2.50061,-1.32845 3.9072,-3.67277 1.40659,-2.34432 1.40659,-5.39194 0,-3.12576 -1.40659,-5.39193 -1.40659,-2.34432 -3.9072,-3.59463 -2.50061,-1.32844 -5.70451,-1.32844 -3.20391,0 -5.70451,1.32844 -2.50061,1.25031 -3.98535,3.59463 -1.40659,2.26617 -1.40659,5.39193 0,3.04762 1.40659,5.39194 1.48474,2.34432 3.98535,3.67277 2.5006,1.2503 5.70451,1.2503 z m 34.38343,12.03418 v -42.04147 h 12.19046 v 42.04147 z m 6.09523,-47.90227 q -3.36019,0 -5.47008,-1.9536 -2.10989,-1.9536 -2.10989,-4.84493 0,-2.89133 2.10989,-4.84493 2.10989,-1.9536 5.47008,-1.9536 3.36019,0 5.47008,1.87546 2.10988,1.79731 2.10988,4.68864 0,3.04761 -2.10988,5.07936 -2.03175,1.9536 -5.47008,1.9536 z m 37.74358,48.52742 q -6.79853,0 -12.11232,-2.73504 -5.31379,-2.81319 -8.3614,-7.73626 -2.96948,-4.92307 -2.96948,-11.17459 0,-6.32966 2.96948,-11.17459 3.04761,-4.92307 8.3614,-7.65811 5.31379,-2.81319 12.11232,-2.81319 6.64224,0 11.56531,2.81319 4.92308,2.73504 7.2674,7.89254 l -9.45543,5.07936 q -1.64102,-2.96947 -4.14163,-4.37606 -2.42246,-1.40659 -5.31379,-1.40659 -3.12576,0 -5.62637,1.40659 -2.50061,1.40659 -3.98534,3.98534 -1.4066,2.57875 -1.4066,6.25152 0,3.67277 1.4066,6.25152 1.48473,2.57875 3.98534,3.98534 2.50061,1.4066 5.62637,1.4066 2.89133,0 5.31379,-1.32845 2.50061,-1.40659 4.14163,-4.45421 l 9.45543,5.1575 q -2.34432,5.07936 -7.2674,7.89255 -4.92307,2.73504 -11.56531,2.73504 z m 86.34918,-55.32595 h 12.65933 v 54.7008 h -12.65933 z m -24.84979,54.7008 h -12.65933 v -54.7008 h 12.65933 z m 25.78752,-22.42733 h -26.72525 v -10.70573 h 26.72525 z m 49.62147,22.42733 v -8.20512 l -0.78144,-1.79732 v -14.69107 q 0,-3.9072 -2.42247,-6.09523 -2.34432,-2.18803 -7.26739,-2.18803 -3.36019,0 -6.64224,1.09402 -3.2039,1.01587 -5.47008,2.81318 l -4.37606,-8.5177 q 3.43833,-2.42246 8.28326,-3.75091 4.84493,-1.32845 9.84614,-1.32845 9.61172,0 14.92551,4.53236 5.31379,4.53235 5.31379,14.14406 v 23.99021 z m -12.81562,0.62515 q -4.92307,0 -8.43955,-1.64103 -3.51648,-1.71916 -5.39194,-4.61049 -1.87545,-2.89133 -1.87545,-6.48595 0,-3.75092 1.79731,-6.5641 1.87545,-2.81318 5.8608,-4.37606 3.98534,-1.64103 10.39315,-1.64103 h 11.17459 v 7.11111 h -9.84614 q -4.29792,0 -5.93895,1.40659 -1.56288,1.40659 -1.56288,3.51648 0,2.34432 1.79732,3.75091 1.87545,1.32845 5.07936,1.32845 3.04761,0 5.47008,-1.40659 2.42246,-1.48474 3.51648,-4.29792 l 1.87545,5.62636 q -1.32845,4.06349 -4.84493,6.17338 -3.51648,2.10989 -9.0647,2.10989 z m 35.243,-0.62515 v -42.04147 h 11.64346 v 11.87788 l -1.64103,-3.43833 q 1.87546,-4.45421 6.01709,-6.72039 4.14163,-2.34432 10.08058,-2.34432 v 11.25274 q -0.78144,-0.0781 -1.4066,-0.0781 -0.62515,-0.0782 -1.32844,-0.0782 -5.00122,0 -8.12698,2.89133 -3.04762,2.81318 -3.04762,8.83027 v 19.84858 z m 46.26117,0 -17.66055,-42.04147 h 12.58119 l 14.69107,36.18067 h -6.25152 l 15.23808,-36.18067 h 11.7216 l -17.73869,42.04147 z m 55.0134,0.62515 q -7.18924,0 -12.65932,-2.81319 -5.39194,-2.81318 -8.36141,-7.65811 -2.96947,-4.92307 -2.96947,-11.17459 0,-6.32966 2.89133,-11.17459 2.96947,-4.92307 8.04883,-7.65811 5.07936,-2.81319 11.48716,-2.81319 6.17338,0 11.09645,2.6569 5.00122,2.57875 7.89255,7.50182 2.89132,4.84493 2.89132,11.64346 0,0.70329 -0.0781,1.64102 -0.0781,0.85959 -0.15629,1.64103 h -34.14893 v -7.11111 h 27.74112 l -4.68864,2.10989 q 0,-3.28205 -1.32844,-5.70451 -1.32845,-2.42247 -3.67277,-3.75091 -2.34432,-1.40659 -5.47008,-1.40659 -3.12576,0 -5.54823,1.40659 -2.34432,1.32844 -3.67276,3.82905 -1.32845,2.42247 -1.32845,5.78266 v 1.87545 q 0,3.43834 1.48473,6.09524 1.56288,2.57875 4.29792,3.98534 2.81319,1.32845 6.5641,1.32845 3.36019,0 5.8608,-1.01587 2.57875,-1.01588 4.68864,-3.04762 l 6.48595,7.03296 q -2.89133,3.28205 -7.26739,5.07936 -4.37606,1.71917 -10.08058,1.71917 z m 42.58852,0 q -5.39194,0 -10.39315,-1.25031 -4.92307,-1.32844 -7.8144,-3.28204 l 4.06349,-8.75213 q 2.89132,1.79731 6.79852,2.96947 3.98535,1.09402 7.8144,1.09402 4.21978,0 5.93895,-1.01588 1.79731,-1.01587 1.79731,-2.81318 0,-1.48474 -1.40659,-2.18803 -1.32845,-0.78144 -3.59463,-1.17216 -2.26617,-0.39072 -5.00121,-0.78144 -2.6569,-0.39072 -5.39194,-1.01587 -2.73504,-0.7033 -5.00121,-2.03175 -2.26618,-1.32845 -3.67277,-3.59462 -1.32845,-2.26618 -1.32845,-5.8608 0,-3.98534 2.26618,-7.03296 2.34432,-3.04762 6.72038,-4.76678 4.37606,-1.79732 10.4713,-1.79732 4.29792,0 8.75212,0.93773 4.45421,0.93773 7.42368,2.73504 l -4.06349,8.67398 q -3.04761,-1.79731 -6.17337,-2.42246 -3.04762,-0.70329 -5.93894,-0.70329 -4.06349,0 -5.93895,1.09401 -1.87545,1.09402 -1.87545,2.81318 0,1.56288 1.32844,2.34432 1.4066,0.78144 3.67277,1.25031 2.26618,0.46886 4.92307,0.85958 2.73504,0.31258 5.47008,1.01587 2.73504,0.7033 4.92307,2.03175 2.26618,1.2503 3.67277,3.51648 1.40659,2.18803 1.40659,5.78265 0,3.9072 -2.34432,6.95482 -2.34432,2.96947 -6.79852,4.68864 -4.37607,1.71917 -10.70573,1.71917 z m 44.54209,0 q -7.42368,0 -11.56531,-3.75091 -4.14163,-3.82906 -4.14163,-11.33088 v -36.88397 h 12.19046 v 36.72768 q 0,2.65689 1.40659,4.14163 1.4066,1.40659 3.82906,1.40659 2.89133,0 4.92307,-1.56288 l 3.28205,8.59584 q -1.87546,1.32845 -4.53235,2.03175 -2.57875,0.62515 -5.39194,0.62515 z M 677.6748,177.72907 v -9.37728 h 29.14771 v 9.37728 z m 75.09641,31.72647 -17.89498,-54.7008 h 13.1282 l 15.55065,48.44928 h -6.56409 l 16.25395,-48.44928 h 11.7216 l 15.6288,48.44928 h -6.32967 l 15.94138,-48.44928 h 12.11232 l -17.89498,54.7008 H 790.82734 L 776.99585,166.9452 h 3.59462 l -14.2222,42.51034 z m 92.60058,0.62515 q -6.72038,0 -11.95603,-2.81319 -5.1575,-2.81318 -8.20512,-7.65811 -2.96947,-4.92307 -2.96947,-11.17459 0,-6.32966 2.96947,-11.17459 3.04762,-4.92307 8.20512,-7.65811 5.23565,-2.81319 11.95603,-2.81319 6.64224,0 11.87789,2.81319 5.23565,2.73504 8.20512,7.57997 2.96947,4.84492 2.96947,11.25273 0,6.25152 -2.96947,11.17459 -2.96947,4.84493 -8.20512,7.65811 -5.23565,2.81319 -11.87789,2.81319 z m 0,-10.00243 q 3.04762,0 5.47008,-1.4066 2.42247,-1.40659 3.82906,-3.98534 1.40659,-2.6569 1.40659,-6.25152 0,-3.67277 -1.40659,-6.25152 -1.40659,-2.57875 -3.82906,-3.98534 -2.42246,-1.40659 -5.47008,-1.40659 -3.04761,0 -5.47008,1.40659 -2.42246,1.40659 -3.9072,3.98534 -1.40659,2.57875 -1.40659,6.25152 0,3.59462 1.40659,6.25152 1.48474,2.57875 3.9072,3.98534 2.42247,1.4066 5.47008,1.4066 z m 31.17953,9.37728 v -42.04147 h 11.64345 v 11.87788 l -1.64102,-3.43833 q 1.87546,-4.45421 6.01709,-6.72039 4.14163,-2.34432 10.08057,-2.34432 v 11.25274 q -0.78144,-0.0781 -1.40659,-0.0781 -0.62515,-0.0782 -1.32845,-0.0782 -5.00121,0 -8.12697,2.89133 -3.04762,2.81318 -3.04762,8.83027 v 19.84858 z m 43.44807,-8.59584 0.31257,-14.84736 19.61415,-18.59827 h 14.53478 l -18.8327,19.14527 -6.32967,5.15751 z m -10.08058,8.59584 v -57.98285 h 12.19046 v 57.98285 z m 31.33574,0 -14.2222,-17.66055 7.65811,-9.45542 21.33331,27.11597 z m 32.97678,0.62515 q -5.39194,0 -10.39315,-1.25031 -4.92307,-1.32844 -7.8144,-3.28204 l 4.06349,-8.75213 q 2.89133,1.79731 6.79852,2.96947 3.98535,1.09402 7.8144,1.09402 4.21978,0 5.93895,-1.01588 1.79731,-1.01587 1.79731,-2.81318 0,-1.48474 -1.40659,-2.18803 -1.32845,-0.78144 -3.59463,-1.17216 -2.26617,-0.39072 -5.00121,-0.78144 -2.6569,-0.39072 -5.39194,-1.01587 -2.73504,-0.7033 -5.00121,-2.03175 -2.26618,-1.32845 -3.67277,-3.59462 -1.32845,-2.26618 -1.32845,-5.8608 0,-3.98534 2.26618,-7.03296 2.34432,-3.04762 6.72038,-4.76678 4.37606,-1.79732 10.4713,-1.79732 4.29792,0 8.75212,0.93773 4.45421,0.93773 7.42368,2.73504 l -4.06348,8.67398 q -3.04762,-1.79731 -6.17338,-2.42246 -3.04762,-0.70329 -5.93894,-0.70329 -4.06349,0 -5.93895,1.09401 -1.87545,1.09402 -1.87545,2.81318 0,1.56288 1.32844,2.34432 1.4066,0.78144 3.67277,1.25031 2.26618,0.46886 4.92307,0.85958 2.73504,0.31258 5.47008,1.01587 2.73504,0.7033 4.92308,2.03175 2.26617,1.2503 3.67276,3.51648 1.4066,2.18803 1.4066,5.78265 0,3.9072 -2.34432,6.95482 -2.34432,2.96947 -6.79853,4.68864 -4.37607,1.71917 -10.70573,1.71917 z m 52.90357,-43.29178 q 5.0012,0 8.9084,2.03175 3.9853,1.9536 6.2515,6.09523 2.2662,4.06349 2.2662,10.47129 v 24.06836 h -12.1905 v -22.1929 q 0,-5.07936 -2.2662,-7.50182 -2.188,-2.42247 -6.2515,-2.42247 -2.8913,0 -5.2356,1.25031 -2.2662,1.17216 -3.5947,3.67276 -1.2503,2.50061 -1.2503,6.40781 v 20.78631 h -12.1904 v -57.98285 h 12.1904 v 27.58483 l -2.735,-3.51648 q 2.2662,-4.21977 6.4859,-6.48595 4.2198,-2.26618 9.6118,-2.26618 z m 48.7618,43.29178 q -6.7204,0 -11.956,-2.81319 -5.1575,-2.81318 -8.2052,-7.65811 -2.9694,-4.92307 -2.9694,-11.17459 0,-6.32966 2.9694,-11.17459 3.0477,-4.92307 8.2052,-7.65811 5.2356,-2.81319 11.956,-2.81319 6.6422,0 11.8779,2.81319 5.2356,2.73504 8.2051,7.57997 2.9695,4.84492 2.9695,11.25273 0,6.25152 -2.9695,11.17459 -2.9695,4.84493 -8.2051,7.65811 -5.2357,2.81319 -11.8779,2.81319 z m 0,-10.00243 q 3.0476,0 5.4701,-1.4066 2.4224,-1.40659 3.829,-3.98534 1.4066,-2.6569 1.4066,-6.25152 0,-3.67277 -1.4066,-6.25152 -1.4066,-2.57875 -3.829,-3.98534 -2.4225,-1.40659 -5.4701,-1.40659 -3.0476,0 -5.4701,1.40659 -2.4224,1.40659 -3.9072,3.98534 -1.4066,2.57875 -1.4066,6.25152 0,3.59462 1.4066,6.25152 1.4848,2.57875 3.9072,3.98534 2.4225,1.4066 5.4701,1.4066 z m 56.0292,10.00243 q -5.3137,0 -9.2991,-2.34432 -3.9853,-2.34432 -6.2515,-7.11111 -2.188,-4.84492 -2.188,-12.19046 0,-7.42368 2.1099,-12.19046 2.1098,-4.76679 6.0952,-7.11111 3.9853,-2.34432 9.5335,-2.34432 5.939,0 10.6276,2.73504 4.7668,2.6569 7.5019,7.50183 2.8131,4.84492 2.8131,11.40902 0,6.64224 -2.8131,11.48717 -2.7351,4.84493 -7.5019,7.50182 -4.6886,2.6569 -10.6276,2.6569 z m -24.8497,14.53478 v -57.2014 h 11.6434 v 8.59584 l -0.2344,12.50303 0.7814,12.4249 v 23.67763 z m 22.7399,-24.53721 q 3.0476,0 5.3919,-1.4066 2.4225,-1.40659 3.8291,-3.98534 1.4847,-2.6569 1.4847,-6.25152 0,-3.67277 -1.4847,-6.25152 -1.4066,-2.57875 -3.8291,-3.98534 -2.3443,-1.40659 -5.3919,-1.40659 -3.0477,0 -5.4701,1.40659 -2.4225,1.40659 -3.8291,3.98534 -1.4066,2.57875 -1.4066,6.25152 0,3.59462 1.4066,6.25152 1.4066,2.57875 3.8291,3.98534 2.4224,1.4066 5.4701,1.4066 z"
       id="text1"
       aria-label="Magic Harvest Workshop" />
  </g>
</svg>
